<svg xmlns="http://www.w3.org/2000/svg" width="24" height="25" viewBox="0 0 24 25" fill="none">
<path fill-rule="evenodd" clip-rule="evenodd" d="M17 2.58777C17 2.03548 16.5523 1.58777 16 1.58777C15.4477 1.58777 15 2.03548 15 2.58777V3.58777H9V2.58777C9 2.03548 8.55228 1.58777 8 1.58777C7.44772 1.58777 7 2.03548 7 2.58777V3.58777H5C3.34315 3.58777 2 4.93091 2 6.58777V20.5878C2 22.2446 3.34315 23.5878 5 23.5878H19C20.6569 23.5878 22 22.2446 22 20.5878V6.58777C22 4.93091 20.6569 3.58777 19 3.58777H17V2.58777ZM20 9.58777V6.58777C20 6.03548 19.5523 5.58777 19 5.58777H17V6.58777C17 7.14005 16.5523 7.58777 16 7.58777C15.4477 7.58777 15 7.14005 15 6.58777V5.58777H9V6.58777C9 7.14005 8.55228 7.58777 8 7.58777C7.44772 7.58777 7 7.14005 7 6.58777V5.58777H5C4.44772 5.58777 4 6.03548 4 6.58777V9.58777H20ZM4 11.5878H20V20.5878C20 21.1401 19.5523 21.5878 19 21.5878H5C4.44772 21.5878 4 21.1401 4 20.5878V11.5878Z" fill="#4A5766"/>
</svg>