<svg width="16" height="16" viewBox="0 0 17 16" fill="none" xmlns="http://www.w3.org/2000/svg">
<g id="CarProfile" clip-path="url(#clip0_1513_1015)">
<path id="Vector" d="M15.5 7.00001H13.7069L11 4.29313C10.9075 4.19987 10.7973 4.12593 10.676 4.0756C10.5546 4.02528 10.4245 3.99959 10.2931 4.00001H3.2675C3.10325 4.00031 2.9416 4.04107 2.79684 4.11868C2.65207 4.19629 2.52866 4.30837 2.4375 4.44501L0.58375 7.2225C0.529282 7.30482 0.500163 7.4013 0.5 7.50001V10.5C0.5 10.7652 0.605357 11.0196 0.792893 11.2071C0.98043 11.3946 1.23478 11.5 1.5 11.5H2.5625C2.67265 11.9302 2.92285 12.3115 3.27366 12.5838C3.62446 12.8561 4.05591 13.0039 4.5 13.0039C4.94409 13.0039 5.37554 12.8561 5.72635 12.5838C6.07715 12.3115 6.32735 11.9302 6.4375 11.5H10.5625C10.6727 11.9302 10.9229 12.3115 11.2737 12.5838C11.6245 12.8561 12.0559 13.0039 12.5 13.0039C12.9441 13.0039 13.3755 12.8561 13.7263 12.5838C14.0771 12.3115 14.3273 11.9302 14.4375 11.5H15.5C15.7652 11.5 16.0196 11.3946 16.2071 11.2071C16.3946 11.0196 16.5 10.7652 16.5 10.5V8.00001C16.5 7.73479 16.3946 7.48043 16.2071 7.2929C16.0196 7.10536 15.7652 7.00001 15.5 7.00001ZM3.2675 5.00001H10.2931L12.2931 7.00001H1.9375L3.2675 5.00001ZM4.5 12C4.30222 12 4.10888 11.9414 3.94443 11.8315C3.77998 11.7216 3.65181 11.5654 3.57612 11.3827C3.50043 11.2 3.48063 10.9989 3.51921 10.8049C3.5578 10.6109 3.65304 10.4328 3.79289 10.2929C3.93275 10.153 4.11093 10.0578 4.30491 10.0192C4.49889 9.98063 4.69996 10.0004 4.88268 10.0761C5.06541 10.1518 5.22159 10.28 5.33147 10.4444C5.44135 10.6089 5.5 10.8022 5.5 11C5.5 11.2652 5.39464 11.5196 5.20711 11.7071C5.01957 11.8946 4.76522 12 4.5 12ZM12.5 12C12.3022 12 12.1089 11.9414 11.9444 11.8315C11.78 11.7216 11.6518 11.5654 11.5761 11.3827C11.5004 11.2 11.4806 10.9989 11.5192 10.8049C11.5578 10.6109 11.653 10.4328 11.7929 10.2929C11.9327 10.153 12.1109 10.0578 12.3049 10.0192C12.4989 9.98063 12.7 10.0004 12.8827 10.0761C13.0654 10.1518 13.2216 10.28 13.3315 10.4444C13.4414 10.6089 13.5 10.8022 13.5 11C13.5 11.2652 13.3946 11.5196 13.2071 11.7071C13.0196 11.8946 12.7652 12 12.5 12ZM15.5 10.5H14.4375C14.3273 10.0698 14.0771 9.68849 13.7263 9.41619C13.3755 9.14389 12.9441 8.99608 12.5 8.99608C12.0559 8.99608 11.6245 9.14389 11.2737 9.41619C10.9229 9.68849 10.6727 10.0698 10.5625 10.5H6.4375C6.32735 10.0698 6.07715 9.68849 5.72635 9.41619C5.37554 9.14389 4.94409 8.99608 4.5 8.99608C4.05591 8.99608 3.62446 9.14389 3.27366 9.41619C2.92285 9.68849 2.67265 10.0698 2.5625 10.5H1.5V8.00001H15.5V10.5Z" fill="#2d3648"/>
</g>
<defs>
<clipPath id="clip0_1513_1015">
<rect width="16" height="16" fill="white" transform="translate(0.5)"/>
</clipPath>
</defs>
</svg>
