<svg className="svg-icon" xmlns="http://www.w3.org/2000/svg" width="26" height="26" viewBox="0 0 26 26" fill="currentColor"><path fill-rule="evenodd" clip-rule="evenodd" d="M13.9585 1.85897C13.5829 1.56687 13.0571 1.56687 12.6815 1.85897L3.32151 9.13897C3.06818 9.336 2.92001 9.63896 2.92001 9.95989V21.3999C2.92001 22.2274 3.24872 23.021 3.83383 23.6061C4.41895 24.1912 5.21253 24.5199 6.04001 24.5199H20.6C21.4275 24.5199 22.2211 24.1912 22.8062 23.6061C23.3913 23.021 23.72 22.2274 23.72 21.3999V9.95989C23.72 9.63896 23.5718 9.336 23.3185 9.13897L13.9585 1.85897ZM17.48 22.4399H20.6C20.8758 22.4399 21.1404 22.3303 21.3354 22.1353C21.5304 21.9402 21.64 21.6757 21.64 21.3999V10.4685L13.32 3.99743L5.00001 10.4685V21.3999C5.00001 21.6757 5.10958 21.9402 5.30461 22.1353C5.49965 22.3303 5.76418 22.4399 6.04001 22.4399H9.16001V13.0799C9.16001 12.5055 9.62563 12.0399 10.2 12.0399H16.44C17.0144 12.0399 17.48 12.5055 17.48 13.0799V22.4399ZM11.24 22.4399V14.1199H15.4V22.4399H11.24Z"/></svg>