<svg xmlns="http://www.w3.org/2000/svg" width="20" height="21" viewBox="0 0 20 21" fill="none">
<path d="M10 9.75444C10.4603 9.75444 10.8334 10.1275 10.8334 10.5878V13.9211C10.8334 14.3813 10.4603 14.7544 10 14.7544C9.5398 14.7544 9.16671 14.3813 9.16671 13.9211V10.5878C9.16671 10.1275 9.5398 9.75444 10 9.75444Z" fill="#009479"/>
<path d="M10 6.42111C9.5398 6.42111 9.16671 6.79421 9.16671 7.25445C9.16671 7.71468 9.5398 8.08778 10 8.08778H10.0084C10.4686 8.08778 10.8417 7.71468 10.8417 7.25445C10.8417 6.79421 10.4686 6.42111 10.0084 6.42111H10Z" fill="#009479"/>
<path fill-rule="evenodd" clip-rule="evenodd" d="M0.833374 10.5878C0.833374 5.52517 4.93743 1.42111 10 1.42111C15.0626 1.42111 19.1667 5.52517 19.1667 10.5878C19.1667 15.6504 15.0626 19.7544 10 19.7544C4.93743 19.7544 0.833374 15.6504 0.833374 10.5878ZM10 3.08778C5.8579 3.08778 2.50004 6.44564 2.50004 10.5878C2.50004 14.7299 5.8579 18.0878 10 18.0878C14.1422 18.0878 17.5 14.7299 17.5 10.5878C17.5 6.44564 14.1422 3.08778 10 3.08778Z" fill="#009479"/>
</svg>