<svg xmlns="http://www.w3.org/2000/svg" width="16" height="17" viewBox="0 0 16 17" fill="none">
<path fill-rule="evenodd" clip-rule="evenodd" d="M4.86193 6.78304C5.12228 6.52269 5.54439 6.52269 5.80474 6.78304L7.13772 8.11603C7.39881 7.99108 7.69124 7.92111 8 7.92111C9.10457 7.92111 10 8.81654 10 9.92111C10 11.0257 9.10457 11.9211 8 11.9211C6.89543 11.9211 6 11.0257 6 9.92111C6 9.61235 6.06997 9.31992 6.19491 9.05884L4.86193 7.72585C4.60158 7.4655 4.60158 7.04339 4.86193 6.78304ZM8 9.25445C7.63181 9.25445 7.33333 9.55292 7.33333 9.92111C7.33333 10.2893 7.63181 10.5878 8 10.5878C8.36819 10.5878 8.66667 10.2893 8.66667 9.92111C8.66667 9.55292 8.36819 9.25445 8 9.25445Z" fill="#2D3648"/>
<path fill-rule="evenodd" clip-rule="evenodd" d="M0 9.92111C0 5.50292 3.58181 1.92111 8 1.92111C12.4182 1.92111 16 5.50292 16 9.92111C16 11.8544 15.313 13.6293 14.1707 15.0123L13.9707 15.2544H2.02931L1.82933 15.0123C0.686998 13.6293 0 11.8544 0 9.92111ZM7.33333 3.28736V3.92111C7.33333 4.2893 7.63181 4.58778 8 4.58778C8.36819 4.58778 8.66667 4.2893 8.66667 3.92111V3.28736C10.0078 3.42052 11.2319 3.95113 12.2198 4.75972C12.2115 4.76725 12.2033 4.77502 12.1953 4.78304L11.5286 5.44971C11.2682 5.71006 11.2682 6.13217 11.5286 6.39252C11.7889 6.65287 12.2111 6.65287 12.4714 6.39252L13.1381 5.72585C13.1461 5.71783 13.1539 5.70965 13.1614 5.70133C13.97 6.68917 14.5006 7.91336 14.6337 9.25445H14C13.6318 9.25445 13.3333 9.55292 13.3333 9.92111C13.3333 10.2893 13.6318 10.5878 14 10.5878H14.6338C14.5104 11.8313 14.0453 12.9737 13.3335 13.9211H2.66655C1.95468 12.9737 1.48964 11.8313 1.36623 10.5878H2C2.36819 10.5878 2.66667 10.2893 2.66667 9.92111C2.66667 9.55292 2.36819 9.25445 2 9.25445H1.36625C1.67898 6.10491 4.18379 3.60009 7.33333 3.28736Z" fill="#2D3648"/>
</svg>