<svg xmlns="http://www.w3.org/2000/svg" width="16" height="17" viewBox="0 0 16 17" fill="none">
<path fill-rule="evenodd" clip-rule="evenodd" d="M3 7.92122C3 5.52799 4.9401 3.58789 7.33333 3.58789C9.72657 3.58789 11.6667 5.52799 11.6667 7.92122C11.6667 9.08065 11.2113 10.1337 10.4697 10.9114C10.4432 10.9329 10.4175 10.9561 10.3928 10.9808C10.3681 11.0055 10.345 11.0311 10.3234 11.0577C9.54578 11.7992 8.49273 12.2546 7.33333 12.2546C4.9401 12.2546 3 10.3145 3 7.92122ZM11.0487 13.0508C10.0051 13.8081 8.72134 14.2546 7.33333 14.2546C3.83553 14.2546 1 11.419 1 7.92122C1 4.42342 3.83553 1.58789 7.33333 1.58789C10.8311 1.58789 13.6667 4.42342 13.6667 7.92122C13.6667 9.30926 13.2201 10.593 12.4629 11.6366L14.707 13.8808C15.0976 14.2713 15.0976 14.9045 14.707 15.295C14.3165 15.6855 13.6834 15.6855 13.2928 15.295L11.0487 13.0508Z" fill="#2D3648"/>
</svg>