<svg xmlns="http://www.w3.org/2000/svg" width="16" height="17" viewBox="0 0 16 17" fill="none">
  <path d="M8.66663 4.58779C8.66663 4.2196 8.36815 3.92112 7.99996 3.92112C7.63177 3.92112 7.33329 4.2196 7.33329 4.58779V8.58779C7.33329 8.8403 7.47596 9.07115 7.70182 9.18407L10.3685 10.5174C10.6978 10.6821 11.0983 10.5486 11.2629 10.2193C11.4276 9.88995 11.2941 9.4895 10.9648 9.32484L8.66663 8.17577V4.58779Z" fill="#2D3648"/>
  <path fill-rule="evenodd" clip-rule="evenodd" d="M7.99996 1.25446C3.94987 1.25446 0.666626 4.5377 0.666626 8.58779C0.666626 12.6379 3.94987 15.9211 7.99996 15.9211C12.05 15.9211 15.3333 12.6379 15.3333 8.58779C15.3333 4.5377 12.05 1.25446 7.99996 1.25446ZM1.99996 8.58779C1.99996 5.27408 4.68625 2.58779 7.99996 2.58779C11.3137 2.58779 14 5.27408 14 8.58779C14 11.9015 11.3137 14.5878 7.99996 14.5878C4.68625 14.5878 1.99996 11.9015 1.99996 8.58779Z" fill="#2D3648"/>
</svg>