<svg width="350" height="150" viewBox="0 0 350 150" fill="none" xmlns="http://www.w3.org/2000/svg">
<g clip-path="url(#clip0_1539_13003)">
<path d="M350 12.0474V137.108C349.998 139.023 349.517 140.906 348.601 142.588C347.986 143.716 347.185 144.732 346.232 145.593C346.162 145.658 346.091 145.719 346.02 145.775C345.156 146.531 344.18 147.15 343.126 147.608C342.659 147.815 342.178 147.989 341.687 148.128C341.364 148.219 341.03 148.3 340.697 148.36C340.245 148.45 339.788 148.509 339.328 148.537C339.071 148.557 338.808 148.568 338.54 148.568H222.955L217.172 148.881L211.707 148.568H11.4596C11.2273 148.568 10.9899 148.562 10.7626 148.542C10.1368 148.507 9.51514 148.419 8.90404 148.28C6.37395 147.701 4.11518 146.281 2.49757 144.252C0.879964 142.222 -0.000624853 139.703 3.32664e-07 137.108V12.0474C0.00365985 9.00922 1.21219 6.09655 3.36049 3.94825C5.50878 1.79995 8.42145 0.591428 11.4596 0.587769H338.54C341.579 0.591428 344.491 1.79995 346.639 3.94825C348.788 6.09655 349.996 9.00922 350 12.0474Z" fill="#F8F9FC"/>
<path d="M81.7376 0.587769C63.8146 42.3929 67.2517 93.1618 81.7376 148.568H182.288C194.862 93.0987 201.228 40.6628 182.288 0.587769H81.7376Z" fill="#E1E6EF"/>
<path d="M41.1818 0.587769C8.4323 40.8908 17.5691 92.7349 41.1818 148.568H81.7374C67.1118 95.8214 64.7208 45.9357 81.7374 0.587769H41.1818Z" fill="#717D96"/>
<path d="M163.699 4.01831H148.49V19.2273H163.699V4.01831Z" fill="white"/>
<path d="M139.196 4.01831H123.987V19.2273H139.196V4.01831Z" fill="white"/>
<path d="M114.692 4.01831H99.4832V19.2273H114.692V4.01831Z" fill="white"/>
<path d="M163.277 38.6609H148.068V53.8699H163.277V38.6609Z" fill="white"/>
<path d="M138.773 38.6609H123.564V53.8699H138.773V38.6609Z" fill="white"/>
<path d="M114.27 38.6609H99.0608V53.8699H114.27V38.6609Z" fill="white"/>
<path d="M162.854 73.3034H147.645V88.5125H162.854V73.3034Z" fill="white"/>
<path d="M138.351 73.3034H123.142V88.5125H138.351V73.3034Z" fill="white"/>
<path d="M113.847 73.3034H98.6384V88.5125H113.847V73.3034Z" fill="white"/>
<path d="M162.432 107.946H147.223V123.155H162.432V107.946Z" fill="white"/>
<path d="M137.928 107.946H122.719V123.155H137.928V107.946Z" fill="white"/>
<path d="M113.425 107.946H98.216V123.155H113.425V107.946Z" fill="white"/>
<path d="M162.01 142.588H146.798V148.568H162.01V142.588Z" fill="white"/>
<path d="M137.505 142.588H122.298V148.568H137.505V142.588Z" fill="white"/>
<path d="M113 142.588H97.793V148.568H113V142.588Z" fill="white"/>
<path d="M3.32664e-07 79.1889V137.108C-0.000624853 139.703 0.879964 142.222 2.49757 144.252C4.11518 146.281 6.37395 147.701 8.90404 148.28C9.51514 148.419 10.1368 148.507 10.7626 148.542C10.9899 148.563 11.2273 148.568 11.4596 148.568H55.5455C64.8012 121.462 81.8182 5.13332 12.1212 15.2343L3.32664e-07 79.1889Z" fill="#E1E6EF"/>
<path d="M35.6898 107.946H20.4808V123.155H35.6898V107.946Z" fill="white"/>
<path d="M11.1869 107.946H0V123.153H11.1869V107.946Z" fill="white"/>
<path d="M35.2678 142.588H20.0607V148.568H35.2678V142.588Z" fill="white"/>
<path d="M1.39398 142.588C2.17398 144.012 3.24628 145.256 4.54055 146.237C5.83483 147.218 7.32185 147.914 8.90409 148.28C9.51518 148.419 10.1369 148.507 10.7627 148.542V142.588H1.39398Z" fill="white"/>
<path d="M350 95.4364V137.108C349.998 139.023 349.517 140.907 348.601 142.588L347.813 141.926L346.293 140.654L337.879 133.618L339.97 142.234L337.51 142.366L337.318 142.376L332.853 142.618L328.949 142.83H328.934L323.364 143.133L317.924 143.426L316.111 143.522L304.561 144.149L299.636 144.416L297.404 144.537L291.5 144.856L283.581 145.285L282.111 145.366L258.869 146.623L244.086 147.426L241.793 147.548L241.621 147.558L240.687 147.608H240.682L238.656 147.719L235.747 147.876L231.035 148.128L228.954 148.239L222.954 148.568L217.172 148.881L211.707 148.568L194.086 147.558L182.662 146.901L182.288 146.881L162.01 145.719L146.798 144.846L137.505 144.315L122.298 143.441L115.288 143.042L113 142.911L107.374 142.588L81.7373 141.118L79.8282 141.007L79.7221 141.002L70.4343 140.472L64.6363 140.138L76.8181 128.82L76.9848 128.664L81.7373 124.25C85.1565 118.113 88.4393 111.916 98.2171 108.936L99.2828 107.947L113.965 94.3051L116.47 94.2698L182.288 93.4011L192.227 93.2698L212.591 93.0021L219.97 92.9061L225.419 93.2243L272.631 95.992L275.707 96.1738L291.404 97.093L305.929 97.9415L312.833 98.3455L314.52 98.4465L314.631 98.4516L315.48 98.5021L317.752 98.3001L320.545 98.0526L321.581 97.9617L322.056 97.9162L332 97.0374L332.833 96.9617L335.212 96.7496L348.99 115.739L350 95.4364Z" fill="#3F3D56"/>
<path d="M296.689 140.48C289.692 130.351 284.592 104.634 286.588 94.0155C286.501 93.669 290.675 99.4939 290.689 99.1326C290.755 97.349 292.026 95.9669 293.527 96.0455L312.396 97.0344C312.863 97.0747 313.311 97.2368 313.695 97.5045C314.08 97.7722 314.388 98.1361 314.588 98.5599L328.854 125.879C329.079 126.316 329.214 126.794 329.251 127.284C329.39 129.062 328.289 130.637 326.793 130.802L301.495 133.596C301.412 133.605 301.328 133.61 301.245 133.61C300.043 133.607 297.037 141.847 296.689 140.48Z" fill="white"/>
<path d="M216.371 140.386L216.556 141.391L217.274 145.26C217.419 146.046 217.644 146.816 217.944 147.558C218.034 147.79 218.136 148.017 218.244 148.239C218.297 148.351 218.351 148.457 218.411 148.568H270.212L278.81 147.573L278.918 147.558C280.69 147.314 282.337 146.507 283.614 145.255C284.674 144.199 285.515 142.944 286.089 141.563C286.663 140.181 286.959 138.7 286.959 137.204C286.971 136.786 286.959 136.368 286.923 135.952C286.876 135.361 286.784 134.775 286.648 134.199C287.615 123.214 285.066 112.506 279.199 102.058C278.718 99.8244 277.54 97.8014 275.836 96.2799C274.436 95.0405 272.654 94.317 270.787 94.2294L228.971 92.5122C227.379 92.461 225.807 92.8885 224.46 93.7395C221.899 95.3253 220.038 98.3152 219.673 101.911C216.154 113.215 214.979 125.118 216.221 136.891C216.106 138.057 216.157 139.234 216.371 140.386Z" fill="white"/>
<path d="M201.062 145.536L93.6209 142.409C92.2702 142.37 72.294 150.252 71.3242 149.026C69.2004 146.342 69.1486 141.922 71.2084 139.154L118.144 92.6076C118.574 91.9777 119.146 91.4577 119.814 91.0893C120.482 90.721 121.227 90.5146 121.989 90.4868H208.475C208.884 90.4872 209.291 90.5477 209.682 90.6664C212.564 91.5356 214.361 95.2856 213.694 99.0423L206.4 140.129C205.831 143.289 203.671 145.527 201.181 145.537C201.141 145.537 201.101 145.537 201.062 145.536Z" fill="white"/>
<path d="M313.381 100.253L222.069 93.956L113.965 94.3059C127.263 80.2442 185.711 63.0998 248.308 83.8103C310.932 85.9094 315.48 98.5041 315.48 98.5041L316.261 99.7283L313.381 100.253Z" fill="#009479"/>
<path d="M349.555 140.26C349.326 141.069 349.005 141.85 348.601 142.588C347.986 143.716 347.185 144.732 346.232 145.593C346.161 145.659 346.091 145.719 346.02 145.775C345.156 146.531 344.179 147.15 343.126 147.608C342.659 147.815 342.178 147.989 341.687 148.128C341.363 148.219 341.03 148.3 340.697 148.361C340.245 148.45 339.788 148.509 339.328 148.537C339.071 148.558 338.808 148.568 338.54 148.568H222.954L217.172 148.881L211.707 148.568H11.4594C11.2271 148.568 10.9897 148.563 10.7625 148.542C10.1367 148.507 9.51496 148.419 8.90387 148.28L10.7625 148.007L13.8433 147.558L20.0604 146.649L35.2675 144.426L41.1817 143.563L55.5453 141.467L57.9443 141.118L64.6362 140.138L70.5403 140.255L79.5756 140.436H79.6867L81.7372 140.477L95.4696 140.75L100.515 140.851L137.525 141.583L140.909 141.649L145.954 141.75L162.02 142.073L182.288 142.472L183.641 142.497L205.343 142.931L205.626 142.936L216.697 142.154L227.53 141.391L235.737 140.815L238.384 140.628L238.485 140.623L239.071 140.583L239.454 140.553L242.677 140.325L254.732 139.477L260.101 139.098L262.414 138.936L264.833 138.765L286.959 137.204L293.121 136.77H293.126L296.495 136.532L302.672 136.098H302.677L309.025 135.649H309.03L311.495 135.477L312.439 135.411L319.631 134.906L323.98 134.598L331.444 134.073L333.752 133.911L336.853 133.689L337.702 133.628L337.879 133.618C337.879 133.618 340.475 133.674 343.858 135.553C344.93 136.15 345.943 136.846 346.884 137.633C347.536 138.175 348.156 138.754 348.742 139.366C349.015 139.649 349.283 139.947 349.555 140.26Z" fill="#009479"/>
<path d="M235.056 148.567H242.889L242.172 147.901L241.803 147.557L241.793 147.547L240.141 146.017L238.828 144.795L237.763 145.86L237.333 146.29L236.066 147.557L235.747 147.876L235.056 148.567Z" fill="#CACACA"/>
<path d="M277.97 148.568H290.015L291.869 147.558L297.404 144.537L298.707 143.825L309.025 135.649H309.03L311.621 133.598L312.964 132.532L314.626 131.214L322.833 124.714C323.06 124.534 323.272 124.335 323.464 124.118C323.911 123.612 324.25 123.02 324.46 122.378C324.671 121.736 324.748 121.058 324.687 120.386C324.683 120.328 324.675 120.271 324.661 120.214C324.572 119.474 324.315 118.764 323.912 118.137C323.509 117.51 322.969 116.982 322.333 116.593C321.436 116.043 320.388 115.792 319.34 115.877C318.291 115.961 317.297 116.376 316.5 117.063L310.48 122.138L308.076 124.164L298.767 132.012L293.126 136.77H293.121L292.045 137.679L282.111 145.366L279.273 147.558L277.97 148.568Z" fill="#FFB6B6"/>
<path d="M319.674 130.826C319.992 130.87 320.315 130.808 320.594 130.65C320.874 130.492 321.093 130.247 321.22 129.952C321.382 129.591 321.654 129.29 321.996 129.091C322.063 129.053 322.132 129.02 322.203 128.991C322.634 128.829 323.021 128.564 323.328 128.22C323.636 127.877 323.856 127.464 323.97 127.016C324.324 125.54 325.459 124.107 326.6 123.002C327.848 121.793 329.181 120.633 330.103 119.16C331.434 117.036 331.807 114.054 329.24 112.282C328.136 111.545 326.812 111.211 325.491 111.336C322.725 111.561 320.438 113.249 318.266 114.884L318.809 113.816C316.468 115.644 313.781 116.98 310.91 117.744C311.407 118.195 310.976 119.098 310.339 119.308C309.701 119.519 309.014 119.297 308.357 119.158C307.53 118.982 306.506 118.997 306.18 119.985C306.108 120.224 306.087 120.475 306.117 120.722C306.147 120.969 306.228 121.208 306.355 121.422C308.661 125.525 311.791 129.108 315.548 131.943C316.382 132.573 317.352 133.192 318.39 133.069C319.428 132.946 320.311 131.655 319.674 130.826Z" fill="#009479"/>
<path d="M317.384 139.184L317.924 143.426L318.449 147.557L318.505 147.997L318.581 148.568H338.54C338.808 148.568 339.071 148.557 339.328 148.537C339.788 148.509 340.245 148.45 340.697 148.361L340.924 147.285L341.056 146.643L332.707 144.012L328.95 142.83H328.939L323.51 141.113L317.384 139.184Z" fill="#FFB6B6"/>
<path d="M309.631 129.214C310.04 130.118 310.591 131.325 311.207 132.694C311.343 132.987 311.48 133.29 311.621 133.598C311.884 134.184 312.156 134.79 312.439 135.411C313.687 138.174 315.045 141.174 316.111 143.522C316.995 145.487 317.682 147.002 317.929 147.557C318.005 147.714 318.04 147.795 318.04 147.795L318.505 147.997L319.833 148.568H338.54C338.808 148.568 339.07 148.557 339.328 148.537C339.788 148.509 340.245 148.45 340.697 148.361C341.03 148.3 341.363 148.219 341.687 148.128C342.178 147.989 342.659 147.815 343.126 147.608C344.179 147.15 345.155 146.531 346.02 145.775C346.06 145.426 346.141 144.866 346.227 144.184C346.362 143.166 346.434 142.14 346.444 141.113C346.444 140.29 344.424 138.956 343.858 135.552C343.668 134.309 343.666 133.044 343.853 131.8C344.899 124.133 344.53 112.401 337.141 110.108L331.828 100.805H321.692L320.045 105.658V105.664L319.101 108.446L318.535 110.108L318.414 110.27L314.798 115.012C314.798 115.012 314.222 115.744 313.434 116.901V116.906C312.297 118.56 311.308 120.311 310.48 122.138C309.939 123.322 309.548 124.569 309.318 125.85C309.093 126.978 309.201 128.147 309.631 129.214Z" fill="#2F2E41"/>
<path d="M330.993 91.4289C323.545 97.0943 315.251 101.603 313.688 107.838C313.688 107.838 314.625 98.0418 310.256 99.8986C302.916 103.019 305.4 86.0514 307.458 83.2769C310.888 78.6527 322.456 76.0252 322.456 76.0252L330.662 80.53L330.993 91.4289Z" fill="#2F2E41"/>
<path d="M318.025 98.304C325.128 98.304 330.887 92.5453 330.887 85.4416C330.887 78.3378 325.128 72.5791 318.025 72.5791C310.921 72.5791 305.162 78.3378 305.162 85.4416C305.162 92.5453 310.921 98.304 318.025 98.304Z" fill="#FFB6B6"/>
<path d="M322.657 80.52L323.152 82.694L314.499 84.6637C314.492 84.224 314.393 83.7907 314.21 83.3909C314.027 82.9911 313.763 82.6334 313.435 82.3404C313.622 83.1928 313.601 84.0776 313.373 84.9201C308.707 87.5385 308.975 88.4661 305.204 87.7984C304.951 87.856 304.689 87.8632 304.433 87.8196C304.178 87.776 303.933 87.6824 303.713 87.5443C303.494 87.4061 303.303 87.226 303.153 87.0144C303.003 86.8027 302.896 86.5635 302.839 86.3105C301.321 79.6452 300.823 72.8329 307.455 71.1785C309.068 70.7754 310.744 70.6982 312.387 70.9515C314.029 71.2047 315.604 71.7834 317.02 72.6534C318.436 73.5235 319.664 74.6675 320.632 76.0183C321.6 77.3692 322.288 78.8996 322.657 80.52Z" fill="#2F2E41"/>
<path d="M320.54 89.1937C320.117 87.3369 319.286 85.5974 318.109 84.1005C316.932 82.6036 315.437 81.3867 313.732 80.5375C312.027 79.6884 310.156 79.2282 308.251 79.1901C306.347 79.1521 304.459 79.5371 302.721 80.3175C303.323 78.5415 304.541 77.0397 306.154 76.084L315.894 71.8558C320.698 70.7621 328.302 67.6581 331.772 70.6306C334.969 73.3613 333.413 78.7065 336.357 81.7001C339.583 84.9809 339.857 88.86 338.942 91.0912C337.884 93.6725 335.766 97.1941 333.123 97.9563C332.986 97.0479 332.533 96.217 331.844 95.6094C332.034 96.4752 332.051 97.3701 331.892 98.2423L315.894 111.002C317.388 109.703 318.661 106.354 319.538 102.582C320.057 100.35 323.153 99.5663 320.642 95.7773C318.131 91.9883 320.881 90.6916 320.54 89.1937Z" fill="#2F2E41"/>
<path d="M333.355 74.9617L333.31 75.0515C333.255 75.1712 333.2 75.2909 333.155 75.4155L333.15 75.4205C332.906 75.5103 332.632 75.3657 332.362 75.1363C332.404 75.6756 332.434 76.1974 332.457 76.7089L323.939 73.3759C325.421 73.6316 325.64 68.3615 326.702 69.3714C326.762 69.4262 326.817 69.4811 326.872 69.536C326.739 69.2182 326.649 68.8846 326.602 68.5436C326.557 68.1155 326.591 67.6827 326.702 67.2669C326.704 67.2649 326.705 67.2626 326.706 67.26C326.707 67.2574 326.707 67.2546 326.707 67.2519C326.813 66.8759 326.978 66.5191 327.196 66.1947C327.51 65.7229 327.907 65.3123 328.368 64.9829C328.956 64.5334 329.642 64.2288 330.369 64.0937C331.097 63.9585 331.846 63.9966 332.557 64.2049C334.184 64.8204 335.529 66.0109 336.337 67.5511C337.073 68.7365 337.449 70.1105 337.419 71.5058C337.388 71.872 337.31 72.2325 337.185 72.578C337.029 73.0632 336.764 73.506 336.409 73.8719C336.054 74.2377 335.62 74.5169 335.14 74.6875C335.02 74.7273 334.881 74.7722 334.731 74.8271C334.651 74.1782 334.646 73.5223 334.716 72.8722C334.162 73.4977 333.703 74.2018 333.355 74.9617Z" fill="#2F2E41"/>
<path d="M325.106 73.0366C325.117 73.3147 325.151 73.5916 325.206 73.8644C325.21 73.8997 325.217 73.9347 325.226 73.9691C325.575 75.5201 327.465 72.2935 328.926 73.3757C329.837 74.0318 330.847 74.5369 331.918 74.8718C331.963 74.7471 332.362 74.9915 332.417 74.8718C332.432 74.8419 332.402 74.403 332.417 74.3731C331.506 74.0223 330.662 73.5161 329.924 72.877C328.552 71.8646 328.747 72.8122 328.428 71.3809C328.059 69.7303 325.884 70.4384 327.001 69.6554L326.872 69.4759C326.078 70.0237 325.493 70.8232 325.211 71.745C325.211 71.7477 325.211 71.7504 325.21 71.753C325.209 71.7556 325.208 71.758 325.206 71.7599C325.122 72.1801 325.089 72.6086 325.106 73.0366Z" fill="#009479"/>
<path d="M322.97 148.568H332.237L332.343 147.557L332.707 144.012L332.854 142.618L333.48 136.552L333.752 133.911L334.353 128.088L334.556 126.128C334.684 124.83 334.298 123.534 333.48 122.519C332.661 121.503 331.477 120.849 330.182 120.699C329.994 120.677 329.805 120.665 329.616 120.663H329.601C329.371 120.666 329.142 120.681 328.914 120.709C327.747 120.876 326.676 121.453 325.894 122.335C325.154 123.163 324.717 124.217 324.651 125.325L324.646 125.401V125.406L324.207 131.487L323.98 134.598L323.859 136.32L323.51 141.113L323.364 143.133L323.045 147.557L322.97 148.568Z" fill="#FFB6B6"/>
<path d="M336.722 132.659C336.975 132.462 337.157 132.187 337.239 131.877C337.32 131.567 337.298 131.238 337.175 130.942C337.03 130.574 337.004 130.169 337.101 129.785C337.12 129.711 337.144 129.638 337.173 129.568C337.358 129.145 337.439 128.684 337.407 128.223C337.376 127.763 337.234 127.317 336.993 126.923C336.183 125.639 335.949 123.826 335.954 122.238C335.96 120.5 336.059 118.737 335.649 117.048C335.056 114.612 333.182 112.264 330.121 112.865C328.823 113.14 327.659 113.855 326.827 114.889C325.057 117.026 324.669 119.842 324.324 122.539L323.939 121.405C323.613 124.357 322.694 127.214 321.237 129.802C321.907 129.762 322.253 130.701 321.958 131.304C321.664 131.907 321.026 132.245 320.467 132.617C319.764 133.088 319.06 133.831 319.54 134.754C319.661 134.972 319.826 135.162 320.024 135.313C320.222 135.464 320.449 135.573 320.691 135.632C325.239 136.845 329.989 137.104 334.642 136.394C335.675 136.235 336.795 135.974 337.432 135.144C338.068 134.315 337.761 132.782 336.722 132.659Z" fill="#009479"/>
<path d="M238.384 143.204C238.384 144.626 238.949 145.991 239.955 146.997C240.961 148.002 242.325 148.567 243.748 148.567H254.738C256.16 148.567 257.524 148.002 258.53 146.997C259.536 145.991 260.101 144.626 260.101 143.204V139.115C260.101 138.249 259.892 137.396 259.491 136.629C259.09 135.862 258.509 135.204 257.798 134.71C257.088 134.216 256.268 133.901 255.409 133.793C254.55 133.685 253.678 133.786 252.867 134.088L241.877 138.177C240.852 138.558 239.967 139.244 239.343 140.143C238.719 141.042 238.384 142.11 238.384 143.204Z" fill="#CACACA"/>
<path d="M11.4596 147.557C11.2273 147.557 10.9949 147.547 10.7626 147.532V148.007L13.8434 147.557H11.4596ZM55.5455 147.557V148.568H81.7374V147.557H55.5455ZM194.086 147.557L211.707 148.568H222.955L228.955 148.239L231.035 148.128L235.747 147.876L238.657 147.719L240.682 147.608H240.687L241.621 147.557H194.086ZM338.54 147.557H337.591L337.646 148.568H338.54C338.808 148.568 339.071 148.557 339.328 148.537L339.374 147.906L339.404 147.517C339.117 147.546 338.829 147.559 338.54 147.557ZM11.4596 147.557C11.2273 147.557 10.9949 147.547 10.7626 147.532V148.007L13.8434 147.557H11.4596ZM55.5455 147.557V148.568H81.7374V147.557H55.5455ZM194.086 147.557L211.707 148.568H222.955L228.955 148.239L231.035 148.128L235.747 147.876L238.657 147.719L240.682 147.608H240.687L241.621 147.557H194.086ZM11.4596 147.557C11.2273 147.557 10.9949 147.547 10.7626 147.532V148.007L13.8434 147.557H11.4596ZM20.0606 147.557V148.568H113V147.557H20.0606ZM194.086 147.557L211.707 148.568H222.955L228.955 148.239L231.035 148.128L235.747 147.876L238.657 147.719L240.682 147.608H240.687L241.621 147.557H194.086ZM338.54 147.557H298.965C298.909 147.891 298.859 148.229 298.813 148.568H338.54C338.808 148.568 339.071 148.557 339.328 148.537L339.374 147.906L339.404 147.517C339.117 147.546 338.829 147.559 338.54 147.557ZM11.4596 147.557C11.2273 147.557 10.9949 147.547 10.7626 147.532V148.007L13.8434 147.557H11.4596ZM11.4596 147.557C11.2273 147.557 10.9949 147.547 10.7626 147.532V148.007L13.8434 147.557H11.4596ZM11.4596 147.557C11.2273 147.557 10.9949 147.547 10.7626 147.532V148.007L13.8434 147.557H11.4596ZM11.4596 147.557C11.2273 147.557 10.9949 147.547 10.7626 147.532V148.007L13.8434 147.557H11.4596ZM11.4596 147.557C11.2273 147.557 10.9949 147.547 10.7626 147.532V148.007L13.8434 147.557H11.4596ZM11.4596 147.557C11.2273 147.557 10.9949 147.547 10.7626 147.532V148.007L13.8434 147.557H11.4596ZM11.4596 147.557C11.2273 147.557 10.9949 147.547 10.7626 147.532V148.007L13.8434 147.557H11.4596ZM11.4596 147.557C11.2273 147.557 10.9949 147.547 10.7626 147.532C9.10064 147.423 7.48905 146.917 6.06286 146.057C4.63667 145.197 3.43744 144.007 2.56566 142.588H1.39394C2.17394 144.012 3.24624 145.256 4.54051 146.237C5.83479 147.217 7.3218 147.914 8.90404 148.28L10.7626 148.007L13.8434 147.557H11.4596ZM338.54 0.587769H11.4596C8.42145 0.591428 5.50878 1.79995 3.36049 3.94825C1.21219 6.09655 0.00365985 9.0092 3.32664e-07 12.0473V137.108C-0.000624853 139.703 0.879964 142.222 2.49757 144.252C4.11518 146.281 6.37395 147.701 8.90404 148.28C9.51514 148.419 10.1368 148.507 10.7626 148.542C10.9899 148.562 11.2273 148.568 11.4596 148.568H338.54C338.808 148.568 339.071 148.557 339.328 148.537C339.788 148.509 340.245 148.45 340.697 148.36C341.03 148.3 341.364 148.219 341.687 148.128C342.178 147.989 342.659 147.815 343.126 147.608C344.18 147.15 345.156 146.531 346.02 145.775C346.091 145.719 346.162 145.658 346.232 145.593C347.185 144.732 347.986 143.716 348.601 142.588C349.517 140.906 349.998 139.023 350 137.108V12.0473C349.996 9.0092 348.788 6.09655 346.639 3.94825C344.491 1.79995 341.579 0.591428 338.54 0.587769ZM348.99 137.108C348.99 137.867 348.907 138.624 348.742 139.366C348.549 140.257 348.237 141.118 347.813 141.926C347.42 142.686 346.933 143.393 346.364 144.032V144.037L346.359 144.042C346.318 144.088 346.273 144.138 346.227 144.184C344.98 145.546 343.392 146.55 341.626 147.093C341.465 147.143 341.303 147.189 341.141 147.234C341.071 147.254 341 147.27 340.924 147.285C340.424 147.401 339.916 147.479 339.404 147.517C339.117 147.546 338.829 147.559 338.54 147.557H11.4596C11.2273 147.557 10.9949 147.547 10.7626 147.532C8.11862 147.354 5.64087 146.179 3.83043 144.244C2.01998 142.308 1.01192 139.758 1.01008 137.108V80.2241C1.01008 79.8756 1.01008 79.5322 1.01513 79.1888C1.2784 58.5138 9.67871 38.7754 24.3954 24.2515C39.1122 9.72762 58.9597 1.58841 79.6363 1.59787H338.54C339.913 1.5976 341.272 1.86769 342.54 2.39273C343.807 2.91777 344.96 3.68746 345.93 4.65784C346.9 5.62822 347.67 6.78028 348.195 8.04819C348.72 9.3161 348.99 10.675 348.99 12.0473L348.99 137.108ZM11.4596 147.557C11.2273 147.557 10.9949 147.547 10.7626 147.532V148.007L13.8434 147.557H11.4596ZM11.4596 147.557C11.2273 147.557 10.9949 147.547 10.7626 147.532V148.007L13.8434 147.557H11.4596ZM11.4596 147.557C11.2273 147.557 10.9949 147.547 10.7626 147.532V148.007L13.8434 147.557H11.4596ZM11.4596 147.557C11.2273 147.557 10.9949 147.547 10.7626 147.532V148.007L13.8434 147.557H11.4596ZM11.4596 147.557C11.2273 147.557 10.9949 147.547 10.7626 147.532V148.007L13.8434 147.557H11.4596ZM11.4596 147.557C11.2273 147.557 10.9949 147.547 10.7626 147.532V148.007L13.8434 147.557H11.4596ZM11.4596 147.557C11.2273 147.557 10.9949 147.547 10.7626 147.532V148.007L13.8434 147.557H11.4596ZM11.4596 147.557C11.2273 147.557 10.9949 147.547 10.7626 147.532V148.007L13.8434 147.557H11.4596ZM194.086 147.557L211.707 148.568H222.955L228.955 148.239L231.035 148.128L235.747 147.876L238.657 147.719L240.682 147.608H240.687L241.621 147.557H194.086ZM55.5455 147.557V148.568H81.7374V147.557H55.5455ZM11.4596 147.557C11.2273 147.557 10.9949 147.547 10.7626 147.532V148.007L13.8434 147.557H11.4596ZM194.086 147.557L211.707 148.568H222.955L228.955 148.239L231.035 148.128L235.747 147.876L238.657 147.719L240.682 147.608H240.687L241.621 147.557H194.086ZM55.5455 147.557V148.568H81.7374V147.557H55.5455ZM11.4596 147.557C11.2273 147.557 10.9949 147.547 10.7626 147.532V148.007L13.8434 147.557H11.4596ZM338.54 147.557H337.591L337.646 148.568H338.54C338.808 148.568 339.071 148.557 339.328 148.537L339.374 147.906L339.404 147.517C339.117 147.546 338.829 147.559 338.54 147.557ZM194.086 147.557L211.707 148.568H222.955L228.955 148.239L231.035 148.128L235.747 147.876L238.657 147.719L240.682 147.608H240.687L241.621 147.557H194.086ZM55.5455 147.557V148.568H81.7374V147.557H55.5455Z" fill="#2D3648"/>
<path d="M307.465 55.5187C314.902 55.5187 320.931 49.49 320.931 42.0532C320.931 34.6165 314.902 28.5878 307.465 28.5878C300.029 28.5878 294 34.6165 294 42.0532C294 49.49 300.029 55.5187 307.465 55.5187Z" fill="#009479"/>
<path d="M310.764 37.7345C309.687 36.4352 307.889 35.6686 306.218 36.1569C304.688 36.6041 303.414 38.0533 303.557 39.7066C303.623 40.474 303.936 41.2113 304.474 41.7684C305.081 42.3976 305.855 42.6148 306.704 42.6865C307.61 42.7629 308.387 42.8977 308.99 43.6441C309.515 44.2932 309.679 45.1543 309.378 45.9392C308.664 47.8048 306.137 48.022 305.081 46.3445C304.667 45.6861 303.617 46.2936 304.035 46.9561C304.896 48.3239 306.647 49.077 308.221 48.5655C309.752 48.0681 310.876 46.4809 310.733 44.8576C310.586 43.1719 309.244 41.7828 307.576 41.5544C306.698 41.4341 305.778 41.5302 305.184 40.7441C304.72 40.1298 304.62 39.2804 304.971 38.5918C305.399 37.7516 306.331 37.2234 307.264 37.2216C308.323 37.2196 309.249 37.7967 309.907 38.5914C310.406 39.1924 311.259 38.331 310.764 37.7345Z" fill="white"/>
<path d="M306.049 33.7215L305.467 50.6712C305.449 51.1912 306.257 51.1905 306.275 50.6712L306.857 33.7215C306.875 33.2015 306.067 33.2022 306.049 33.7215Z" fill="white"/>
<path d="M307.933 33.7215L307.351 50.6712C307.333 51.1912 308.141 51.1905 308.159 50.6712L308.741 33.7215C308.759 33.2015 307.951 33.2022 307.933 33.7215Z" fill="white"/>
</g>
<defs>
<clipPath id="clip0_1539_13003">
<rect width="350" height="148.568" fill="white" transform="translate(0 0.587769)"/>
</clipPath>
</defs>
</svg>
