<svg width="290" height="220" viewBox="0 0 290 220" fill="none" xmlns="http://www.w3.org/2000/svg">
<g clip-path="url(#clip0_1457_9649)">
<path d="M116.127 45.6229H115.073V16.7252C115.073 14.5288 114.64 12.354 113.799 10.3248C112.959 8.29557 111.727 6.45179 110.174 4.89871C108.621 3.34563 106.777 2.11366 104.748 1.27314C102.719 0.432615 100.544 1.86095e-06 98.3474 0H37.1237C32.6879 -8.45616e-06 28.4338 1.7621 25.2972 4.89867C22.1606 8.03525 20.3984 12.2894 20.3984 16.7252V175.26C20.3984 177.457 20.831 179.632 21.6716 181.661C22.5121 183.69 23.7441 185.534 25.2971 187.087C26.8502 188.64 28.694 189.872 30.7232 190.712C32.7524 191.553 34.9272 191.986 37.1236 191.986H98.3473C102.783 191.986 107.037 190.223 110.174 187.087C113.31 183.95 115.073 179.696 115.073 175.26V66.1928H116.127V45.6229Z" fill="#3F3D56"/>
<path d="M99.0225 4.35138H91.0307C91.3982 5.25242 91.5385 6.23001 91.4392 7.19804C91.34 8.16606 91.0041 9.09482 90.4613 9.90248C89.9185 10.7101 89.1855 11.3719 88.3267 11.8295C87.4679 12.2871 86.5097 12.5265 85.5366 12.5266H50.4623C49.4892 12.5265 48.531 12.2871 47.6722 11.8295C46.8134 11.3719 46.0804 10.7102 45.5376 9.90249C44.9948 9.09483 44.6589 8.16607 44.5597 7.19804C44.4604 6.23001 44.6007 5.25242 44.9682 4.35138H37.5039C35.8636 4.35138 34.2395 4.67445 32.7241 5.30214C31.2087 5.92983 29.8318 6.84985 28.672 8.00967C27.5121 9.16949 26.5921 10.5464 25.9644 12.0618C25.3367 13.5772 25.0137 15.2013 25.0137 16.8416V175.144C25.0137 176.784 25.3367 178.408 25.9644 179.924C26.5921 181.439 27.5121 182.816 28.672 183.976C29.8318 185.136 31.2087 186.056 32.7241 186.684C34.2395 187.311 35.8636 187.634 37.5039 187.634H99.0225C100.663 187.634 102.287 187.311 103.802 186.684C105.318 186.056 106.695 185.136 107.854 183.976C109.014 182.816 109.934 181.439 110.562 179.924C111.19 178.409 111.513 176.784 111.513 175.144V16.8416C111.513 15.2013 111.19 13.5772 110.562 12.0618C109.934 10.5464 109.014 9.16949 107.854 8.00967C106.695 6.84985 105.318 5.92983 103.802 5.30214C102.287 4.67445 100.663 4.35138 99.0225 4.35138Z" fill="white"/>
<path d="M135.751 192.013H0.775166C0.681208 192.013 0.591099 191.976 0.524661 191.909C0.458223 191.843 0.420898 191.753 0.420898 191.659C0.420898 191.565 0.458223 191.475 0.524661 191.408C0.591099 191.342 0.681208 191.304 0.775166 191.304H135.751C135.845 191.304 135.935 191.342 136.002 191.408C136.068 191.475 136.105 191.565 136.105 191.659C136.105 191.753 136.068 191.843 136.002 191.909C135.935 191.976 135.845 192.013 135.751 192.013Z" fill="#CBCBCB"/>
<path d="M68.2632 122.463C84.7856 122.463 98.1797 109.069 98.1797 92.5465C98.1797 76.024 84.7856 62.6299 68.2632 62.6299C51.7408 62.6299 38.3467 76.024 38.3467 92.5465C38.3467 109.069 51.7408 122.463 68.2632 122.463Z" fill="#027BCE"/>
<path d="M65.2986 103.959C64.6255 103.96 63.9704 103.742 63.4319 103.338L63.3985 103.313L56.3677 97.9351C56.0421 97.6855 55.7689 97.3741 55.5635 97.0189C55.3582 96.6636 55.2249 96.2714 55.1712 95.8646C55.1175 95.4579 55.1444 95.0445 55.2504 94.6481C55.3564 94.2518 55.5395 93.8802 55.7891 93.5545C56.0388 93.2289 56.3501 92.9556 56.7053 92.7503C57.0606 92.545 57.4528 92.4117 57.8596 92.358C58.2663 92.3042 58.6797 92.3312 59.0761 92.4372C59.4725 92.5432 59.8441 92.7263 60.1697 92.9759L64.7237 96.4681L75.4849 82.4288C75.7345 82.1033 76.0457 81.8302 76.4008 81.625C76.7559 81.4197 77.1479 81.2865 77.5545 81.2328C77.9611 81.1791 78.3743 81.206 78.7705 81.3119C79.1667 81.4179 79.5382 81.6009 79.8637 81.8505L79.8646 81.8511L79.7978 81.9439L79.8664 81.8511C80.5231 82.3558 80.9527 83.1004 81.061 83.9215C81.1693 84.7426 80.9474 85.5731 80.4441 86.2308L67.7865 102.737C67.4936 103.117 67.1171 103.425 66.6862 103.636C66.2552 103.847 65.7813 103.957 65.3013 103.955L65.2986 103.959Z" fill="white"/>
<path d="M246.369 194.953C246.733 194.365 247.162 193.819 247.647 193.325C247.847 193.118 248.058 192.922 248.275 192.732C249.598 191.555 251.21 190.751 252.947 190.404C254.683 190.056 256.481 190.177 258.155 190.755C259.829 191.332 261.319 192.345 262.472 193.689C263.624 195.034 264.398 196.661 264.714 198.403C266.175 193 262.371 187.678 258.547 183.589C254.721 179.502 250.349 175.019 250.37 169.419C250.381 166.303 251.905 163.523 254.207 161.462C254.278 161.4 254.349 161.337 254.421 161.277C257.203 158.893 260.782 157.646 264.443 157.785C271.244 158.149 277.183 162.72 281.308 168.143C287.946 176.867 290.855 189.114 286.208 199.046C282.12 207.781 273.401 212.968 264.503 217.138C263.261 217.72 262.021 218.285 260.783 218.832C260.775 218.835 260.766 218.84 260.758 218.843C260.699 218.869 260.639 218.895 260.583 218.922C260.328 219.035 260.072 219.147 259.819 219.259L259.936 219.335L260.302 219.572C260.175 219.495 260.05 219.421 259.923 219.344C259.885 219.321 259.845 219.299 259.808 219.276C255.438 216.653 251.007 213.879 247.987 209.786C244.856 205.535 243.597 199.447 246.369 194.953Z" fill="#F1F1F1"/>
<path d="M275.526 185.082C276.494 187.284 277.136 189.614 277.431 192.001C277.663 194.129 277.576 196.28 277.172 198.382C276.304 202.702 274.411 206.751 271.653 210.187C269.572 212.796 267.17 215.132 264.504 217.138C263.261 217.72 262.021 218.285 260.784 218.833C260.775 218.835 260.766 218.841 260.758 218.843C260.699 218.869 260.639 218.895 260.583 218.922C260.328 219.035 260.072 219.147 259.819 219.259L259.936 219.335L260.302 219.572C260.175 219.495 260.05 219.421 259.923 219.344C259.885 219.321 259.846 219.299 259.808 219.276C260.77 215.912 260.911 212.366 260.22 208.936C259.529 205.506 258.027 202.291 255.838 199.562C253.637 196.867 250.83 194.73 247.647 193.325C247.847 193.118 248.058 192.923 248.275 192.732C249.501 193.296 250.675 193.966 251.784 194.736C255.747 197.475 258.723 201.418 260.271 205.98C261.654 210.119 261.826 214.567 260.769 218.801C260.988 218.657 261.209 218.51 261.423 218.363C265.494 215.618 269.246 212.321 272.072 208.277C274.51 204.86 276.07 200.896 276.615 196.734C277.156 192.187 276.019 187.716 273.989 183.659C271.747 179.319 268.923 175.306 265.594 171.731C262.25 168.057 258.47 164.807 254.337 162.052C254.244 161.989 254.178 161.893 254.154 161.783C254.13 161.673 254.149 161.558 254.207 161.462C254.251 161.375 254.328 161.308 254.421 161.277C254.469 161.265 254.518 161.264 254.566 161.274C254.614 161.283 254.659 161.304 254.698 161.333C255.208 161.674 255.714 162.017 256.214 162.371C260.376 165.318 264.156 168.771 267.467 172.65C270.666 176.39 273.578 180.544 275.526 185.082Z" fill="white"/>
<path d="M186.426 13.8909C189.935 13.8909 192.779 11.0464 192.779 7.53747C192.779 4.02856 189.935 1.18402 186.426 1.18402C182.917 1.18402 180.073 4.02856 180.073 7.53747C180.073 11.0464 182.917 13.8909 186.426 13.8909Z" fill="#F1F1F1"/>
<path d="M265.428 98.9151C267.567 98.9151 269.301 97.1809 269.301 95.0415C269.301 92.9022 267.567 91.168 265.428 91.168C263.288 91.168 261.554 92.9022 261.554 95.0415C261.554 97.1809 263.288 98.9151 265.428 98.9151Z" fill="#F1F1F1"/>
<path d="M152.062 109.543C154.201 109.543 155.936 107.809 155.936 105.67C155.936 103.53 154.201 101.796 152.062 101.796C149.923 101.796 148.188 103.53 148.188 105.67C148.188 107.809 149.923 109.543 152.062 109.543Z" fill="#F1F1F1"/>
<path d="M154.249 220H289.225C289.319 220 289.409 219.963 289.476 219.896C289.542 219.83 289.579 219.74 289.579 219.646C289.579 219.552 289.542 219.462 289.476 219.395C289.409 219.329 289.319 219.292 289.225 219.292H154.249C154.155 219.292 154.065 219.329 153.999 219.395C153.932 219.462 153.895 219.552 153.895 219.646C153.895 219.74 153.932 219.83 153.999 219.896C154.065 219.963 154.155 220 154.249 220Z" fill="#CBCBCB"/>
<path d="M274.33 34.2347C274.507 32.9763 274.216 31.6967 273.513 30.6383C272.81 29.5798 271.743 28.8161 270.514 28.4918C269.285 28.1675 267.981 28.3052 266.847 28.8788C265.713 29.4523 264.828 30.4219 264.362 31.6038L253.409 44.1606L256.622 53.1366L267.638 38.4645C268.356 38.6947 269.117 38.7646 269.866 38.6691C270.614 38.5736 271.333 38.3151 271.971 37.9119C272.609 37.5086 273.151 36.9703 273.558 36.335C273.966 35.6997 274.229 34.9827 274.33 34.2347Z" fill="#FFB7B7"/>
<path d="M228.928 83.093L265.286 44.2905L260.382 36.4938L214.78 75.0607L228.928 83.093Z" fill="#3F3D56"/>
<path d="M220.813 59.5169C227.857 59.5169 233.567 53.8069 233.567 46.7633C233.567 39.7196 227.857 34.0096 220.813 34.0096C213.77 34.0096 208.06 39.7196 208.06 46.7633C208.06 53.8069 213.77 59.5169 220.813 59.5169Z" fill="#2F2E41"/>
<path d="M221.838 39.5586C224.583 36.7757 227.904 34.6281 231.568 33.2671C233.92 32.3958 236.479 31.8575 238.938 32.3523C241.397 32.8471 243.722 34.5481 244.408 36.9606C244.969 38.9332 244.39 41.0572 243.519 42.9142C242.649 44.7712 241.487 46.4932 240.783 48.4195C240.065 50.385 239.849 52.4987 240.154 54.5689C240.46 56.639 241.278 58.6 242.534 60.2738C243.79 61.9476 245.444 63.2812 247.346 64.1536C249.249 65.0259 251.338 65.4094 253.426 65.2692C251.011 65.5932 248.784 66.7285 246.422 67.3328C244.061 67.9371 241.274 67.8961 239.519 66.2044C237.662 64.4145 237.625 61.5042 237.715 58.9268C237.848 55.0955 237.982 51.2641 238.115 47.4327C238.183 45.4787 238.241 43.4622 237.537 41.6384C236.832 39.8147 235.157 38.2177 233.202 38.2343C231.72 38.2469 230.409 39.1445 229.221 40.0298C228.032 40.915 226.775 41.8595 225.299 41.9911C223.823 42.1228 222.138 41.0305 222.248 39.5529L221.838 39.5586Z" fill="#2F2E41"/>
<path d="M172.374 132.398C171.15 132.738 169.843 132.617 168.702 132.058C167.561 131.499 166.664 130.541 166.182 129.366C165.7 128.19 165.666 126.878 166.087 125.679C166.507 124.48 167.353 123.476 168.464 122.859L179.481 110.359L188.8 112.373L175.693 125.211C176.016 125.893 176.184 126.638 176.187 127.393C176.191 128.148 176.028 128.894 175.712 129.579C175.395 130.264 174.933 130.872 174.356 131.359C173.779 131.846 173.103 132.2 172.374 132.398Z" fill="#FFB7B7"/>
<path d="M208.623 87.6476L181.162 122.118L172.791 118.275L205.069 68.0236L208.623 87.6476Z" fill="#3F3D56"/>
<path d="M186.712 191.733L180.167 191.631L180.954 213.937H186.711L186.712 191.733Z" fill="#FFB7B7"/>
<path d="M188.179 212.058L176.842 212.058H176.841C174.925 212.058 173.088 212.819 171.733 214.174C170.378 215.529 169.617 217.366 169.617 219.282V219.517L188.179 219.518L188.179 212.058Z" fill="#2F2E41"/>
<path d="M230.044 185.817L222.895 190.407L237.196 207.612L242.04 204.502L230.044 185.817Z" fill="#FFB7B7"/>
<path d="M242.26 202.127L232.72 208.252L232.72 208.252C231.108 209.287 229.973 210.921 229.564 212.793C229.156 214.665 229.509 216.622 230.544 218.235L230.671 218.432L246.29 208.404L242.26 202.127Z" fill="#2F2E41"/>
<path d="M232.592 117.702C232.592 117.702 216.706 64.9416 211.601 64.2286C206.496 63.5157 198.271 77.7663 198.271 77.7663C187.606 91.3731 176.61 135.448 176.61 135.448C176.61 135.448 194.942 136.596 208.343 143.725C221.743 150.855 237.558 143.364 237.558 143.364L232.592 117.702Z" fill="#3F3D56"/>
<path opacity="0.1" d="M232.592 117.702C232.592 117.702 216.706 64.9417 211.601 64.2288C206.496 63.5158 200.36 77.911 200.36 77.911C195.046 99.8756 176.61 135.449 176.61 135.449C176.61 135.449 194.942 136.596 208.343 143.725C221.743 150.855 237.558 143.364 237.558 143.364L232.592 117.702Z" fill="black"/>
<path d="M219.559 101.916V128.428L222.679 166.832L238.267 195.882L230.827 201.196L209.571 173.563L201.164 146.125L187.961 206.864L178.041 206.156L184.93 121.942L198.003 98.2383L219.559 101.916Z" fill="#2F2E41"/>
<path d="M203.543 76.2737C198.583 81.2334 203.188 86.5474 203.188 86.5474L197.52 99.301L219.839 105.324L227.638 70.4714L222.324 64.8031C211.696 64.4488 211.691 64.2286 211.691 64.2286C209.829 66.0509 203.543 76.2737 203.543 76.2737Z" fill="#027BCE"/>
<path d="M228.537 66.8607C227.524 66.1124 226.372 65.5727 225.148 65.2729C223.924 64.973 222.653 64.9189 221.408 65.1138C220.164 65.3086 218.97 65.7485 217.896 66.4079C216.823 67.0674 215.891 67.9333 215.154 68.9555C209.543 76.7679 204.355 89.3829 211.503 105.116C222.981 130.379 232.97 143.311 237.03 143.31C237.208 143.311 237.384 143.284 237.552 143.228C240.052 142.38 243.665 138.151 244.32 134.424C244.554 133.089 244.498 131.231 242.903 129.955C238.32 126.29 230.093 114.877 227.527 99.8554C226.109 91.5551 228.859 83.9942 231.416 79.1132C232.496 77.0935 232.812 74.7523 232.306 72.5186C231.8 70.2849 230.506 68.3084 228.661 66.9515L228.537 66.8607Z" fill="#3F3D56"/>
<path d="M221.469 58.264C226.019 55.777 227.691 50.0728 225.204 45.5232C222.717 40.9737 217.013 39.3017 212.463 41.7887C207.913 44.2757 206.241 49.9799 208.728 54.5295C211.215 59.079 216.92 60.751 221.469 58.264Z" fill="#FFB7B7"/>
<path d="M203.763 49.3165H217.319L217.458 47.3703L218.154 49.3165H220.241L220.516 45.4591L221.894 49.3165H225.933V49.1254C225.93 46.4399 224.862 43.8653 222.963 41.9663C221.064 40.0673 218.489 38.9992 215.804 38.9962H213.892C211.207 38.9992 208.632 40.0673 206.733 41.9663C204.834 43.8652 203.766 46.4399 203.763 49.1254V49.3165Z" fill="#2F2E41"/>
<path d="M223.885 56.3123L229.67 54.4352V40.3865H218.743L219.013 40.6566C222.777 44.4157 226.963 57.7525 223.885 56.3123Z" fill="#2F2E41"/>
</g>
<defs>
<clipPath id="clip0_1457_9649">
<rect width="289.158" height="220" fill="white" transform="translate(0.420898)"/>
</clipPath>
</defs>
</svg>
